# xmcd CD database file
#
# Track frame offsets:
#	183
#	12495
#	23398
#	35148
#	53873
#	67188
#	81980
#	95533
#	106653
#	119035
#	132753
#	144993
#	157568
#	169845
#	182470
#	195310
#
# Disc length: 2719 seconds
#
# Revision: 3
# Processed by: cddbd v1.5.2PL0 Copyright (c) Steve Scherf et al.
# Submitted via: CDex 1.70beta2
#
DISCID=cb0a9d10
DTITLE=The Platters - Greatest Hits
DYEAR=1993
DGENRE=Soul
TTITLE0=The Great Pretender
TTITLE1=Red Sails in the Sunset
TTITLE2=Only You
TTITLE3=16 Tons
TTITLE4=Enchanted
TTITLE5=Harbour Lights
TTITLE6=My Prayer
TTITLE7=Smoke Gets in Your Eyes
TTITLE8=You'll Never Know
TTITLE9=He's Mine
TTITLE10=Remember When
TTITLE11=Twilight Time
TTITLE12=With This Ring
TTITLE13=I Love You 1000 Times
TTITLE14=Washed Ashore (On a Lonely Island in the Sun)
TTITLE15=Sweet Sweet Lovin'
EXTD=YEAR: 1993
EXTT0=
EXTT1=
EXTT2=
EXTT3=
EXTT4=
EXTT5=
EXTT6=
EXTT7=
EXTT8=
EXTT9=
EXTT10=
EXTT11=
EXTT12=
EXTT13=
EXTT14=
EXTT15=
PLAYORDER=
